<svg width="607" height="607" viewBox="0 0 607 607" fill="none" xmlns="http://www.w3.org/2000/svg">
<path d="M404.05 1.05H605.95V202.95H505H404.05V1.05Z" fill="#E8E8E8" stroke="black" stroke-width="0.1"/>
<path d="M202.05 1.05H403.95V202.95H303H202.05V1.05Z" fill="#E8E8E8" stroke="black" stroke-width="0.1"/>
<path d="M404 1H202V203H404V1Z" fill="#20D5A8"/>
<path d="M101 1H0V102H101V1Z" fill="#0F0928"/>
<path d="M304 0C330.787 0 356.477 10.641 375.418 29.5822C394.359 48.5234 405 74.2131 405 101C405 127.787 394.359 153.477 375.418 172.418C356.477 191.359 330.787 202 304 202C277.213 202 251.523 191.359 232.582 172.418C213.641 153.477 203 127.787 203 101C203 74.2131 213.641 48.5234 232.582 29.5822C251.523 10.641 277.213 0 304 0Z" fill="white"/>
<path d="M304 55C316.2 55 327.9 59.8464 336.527 68.4731C345.154 77.0998 350 88.8 350 101C350 113.2 345.154 124.9 336.527 133.527C327.9 142.154 316.2 147 304 147C291.8 147 280.1 142.154 271.473 133.527C262.846 124.9 258 113.2 258 101C258 94.9592 259.19 88.9776 261.502 83.3966C263.813 77.8156 267.202 72.7446 271.473 68.4731C275.745 64.2016 280.816 60.8132 286.397 58.5015C291.978 56.1898 297.959 55 304 55Z" fill="#E13D71"/>
<path d="M166 441H38V569H166V441Z" fill="#20D5A8"/>
<path d="M606 405L482 529.5L404 607H606V405Z" fill="#0F0928"/>
<path d="M202 404H0V203L101 299.848L202 203V404Z" fill="#F4E433"/>
<path d="M404 1H606V203H505H404V1Z" fill="#F4E433"/>
<path d="M302.51 223.32C323.727 223.32 344.075 231.749 359.078 246.752C374.081 261.755 382.51 282.103 382.51 303.32C382.51 324.538 374.081 344.886 359.078 359.889C344.075 374.892 323.727 383.32 302.51 383.32L302.51 223.32Z" fill="#E13D71"/>
<path d="M222.51 303.32C222.51 324.538 230.938 344.886 245.941 359.889C260.944 374.892 281.292 383.32 302.51 383.32C323.727 383.32 344.075 374.892 359.078 359.889C374.081 344.886 382.51 324.538 382.51 303.32L222.51 303.32Z" fill="#00E5E8"/>
<path d="M505.08 404.01C560.866 404.01 606.09 358.787 606.09 303C606.09 247.214 560.866 201.99 505.08 201.99C449.294 201.99 404.07 247.214 404.07 303C404.07 358.787 449.294 404.01 505.08 404.01Z" fill="#20D5A8"/>
<path d="M504.5 29.0822L433.082 100.5L504.5 171.918L575.918 100.5L504.5 29.0822Z" fill="white"/>
</svg>
