<svg width="607" height="404" viewBox="0 0 607 404" fill="none" xmlns="http://www.w3.org/2000/svg">
<rect width="100" height="101" transform="matrix(1 0 0 -1 405.294 202)" fill="#F4E433"/>
<rect width="101" height="101" transform="matrix(1 0 0 -1 505.294 101)" fill="#E13D71"/>
<path d="M355.014 202H326.154V404H355.014V202Z" fill="#0F0928"/>
<path d="M276.154 202H247.294V404H276.154V202Z" fill="#0F0928"/>
<path d="M1.29395 0H203.294V202H102.294H1.29395V0Z" fill="#F4E433"/>
<path d="M405.294 101C405.294 87.7365 402.682 74.6029 397.606 62.349C392.53 50.0951 385.09 38.9609 375.712 29.5822C366.333 20.2035 355.199 12.7639 342.945 7.68816C330.691 2.61244 317.558 -3.83508e-06 304.294 -4.41485e-06C291.03 -4.99461e-06 277.897 2.61243 265.643 7.68816C253.389 12.7639 242.255 20.2035 232.876 29.5822C223.497 38.9609 216.058 50.0951 210.982 62.349C205.906 74.6029 203.294 87.7365 203.294 101L405.294 101Z" fill="#00E5E8"/>
<rect width="100" height="101" transform="matrix(1 0 0 -1 52.2939 152)" fill="#F7F7F9"/>
<path d="M29.9392 373.549L100.812 303L30.2631 232.128C11.4665 250.839 0.872532 276.25 0.811786 302.771C0.75104 329.293 11.2285 354.752 29.9392 373.549Z" fill="#0F0928"/>
<path d="M100.812 303.001L173.101 231.041C192.186 250.213 202.873 276.182 202.811 303.234C202.749 330.286 191.944 356.206 172.771 375.29L100.812 303.001Z" fill="#E13D71"/>
<path d="M506.294 202L606.753 403.75H405.835L506.294 202Z" fill="#20D5A8"/>
</svg>
