<svg width="333" height="11" viewBox="0 0 333 11" fill="none" xmlns="http://www.w3.org/2000/svg">
<path d="M0 2C27.75 2 13.875 6 41.625 6C69.375 6 58.275 2 83.25 2C108.225 2 99.9 6 124.875 6C149.85 6 141.525 2 166.5 2C191.475 2 183.15 6 208.125 6C233.1 6 224.775 2 249.75 2C274.725 2 266.4 6 291.375 6C316.35 6 308.025 2 333 2" stroke="#F7F7F9" stroke-width="3"/>
<path d="M0 5C27.75 5 13.875 9 41.625 9C69.375 9 58.275 5 83.25 5C108.225 5 99.9 9 124.875 9C149.85 9 141.525 5 166.5 5C191.475 5 183.15 9 208.125 9C233.1 9 224.775 5 249.75 5C274.725 5 266.4 9 291.375 9C316.35 9 308.025 5 333 5" stroke="#E13D71" stroke-width="4"/>
</svg>
