<svg width="105" height="25" viewBox="0 0 105 25" fill="none" xmlns="http://www.w3.org/2000/svg">
<path d="M6.36047 7.62V24.45H0.480469V7.62H6.36047Z" fill="#0F0928"/>
<path d="M20.719 7.47C22.659 7.47 24.199 8.12 25.339 9.42C26.479 10.7 27.049 12.44 27.049 14.64V24.45H21.169V15.42C21.169 14.46 20.919 13.71 20.419 13.17C19.919 12.61 19.249 12.33 18.409 12.33C17.529 12.33 16.839 12.61 16.339 13.17C15.839 13.71 15.589 14.46 15.589 15.42V24.45H9.70898V7.62H15.589V10.02C16.109 9.26 16.809 8.65 17.689 8.19C18.569 7.71 19.579 7.47 20.719 7.47Z" fill="#0F0928"/>
<path d="M29.3154 16.02C29.3154 14.28 29.6254 12.76 30.2454 11.46C30.8854 10.16 31.7554 9.16 32.8554 8.46C33.9554 7.76 35.1754 7.41 36.5154 7.41C37.5954 7.41 38.5554 7.64 39.3954 8.1C40.2554 8.54 40.9254 9.15 41.4054 9.93V2.25H47.3154V24.45H41.4054V22.11C40.9454 22.89 40.2954 23.51 39.4554 23.97C38.6154 24.43 37.6254 24.66 36.4854 24.66C35.1454 24.66 33.9254 24.31 32.8254 23.61C31.7454 22.91 30.8854 21.91 30.2454 20.61C29.6254 19.29 29.3154 17.76 29.3154 16.02ZM41.4354 16.02C41.4354 14.94 41.1354 14.09 40.5354 13.47C39.9554 12.85 39.2354 12.54 38.3754 12.54C37.4954 12.54 36.7654 12.85 36.1854 13.47C35.6054 14.07 35.3154 14.92 35.3154 16.02C35.3154 17.1 35.6054 17.96 36.1854 18.6C36.7654 19.22 37.4954 19.53 38.3754 19.53C39.2354 19.53 39.9554 19.22 40.5354 18.6C41.1354 17.98 41.4354 17.12 41.4354 16.02Z" fill="#0F0928"/>
<path d="M56.546 7.62V24.45H50.666V7.62H56.546Z" fill="#0F0928"/>
<path d="M58.9345 16.02C58.9345 14.28 59.2945 12.76 60.0145 11.46C60.7345 10.16 61.7345 9.16 63.0145 8.46C64.3145 7.76 65.7945 7.41 67.4545 7.41C69.5945 7.41 71.3945 8 72.8545 9.18C74.3145 10.34 75.2545 11.97 75.6745 14.07H69.4345C69.0745 12.97 68.3745 12.42 67.3345 12.42C66.5945 12.42 66.0045 12.73 65.5645 13.35C65.1445 13.95 64.9345 14.84 64.9345 16.02C64.9345 17.2 65.1445 18.1 65.5645 18.72C66.0045 19.34 66.5945 19.65 67.3345 19.65C68.3945 19.65 69.0945 19.1 69.4345 18H75.6745C75.2545 20.08 74.3145 21.71 72.8545 22.89C71.3945 24.07 69.5945 24.66 67.4545 24.66C65.7945 24.66 64.3145 24.31 63.0145 23.61C61.7345 22.91 60.7345 21.91 60.0145 20.61C59.2945 19.31 58.9345 17.78 58.9345 16.02Z" fill="#0F0928"/>
<path d="M77.1572 16.02C77.1572 14.28 77.4672 12.76 78.0872 11.46C78.7272 10.16 79.5872 9.16 80.6672 8.46C81.7672 7.76 82.9872 7.41 84.3272 7.41C85.4872 7.41 86.4872 7.64 87.3272 8.1C88.1672 8.56 88.8172 9.18 89.2772 9.96V7.62H95.1572V24.45H89.2772V22.11C88.8172 22.89 88.1572 23.51 87.2972 23.97C86.4572 24.43 85.4672 24.66 84.3272 24.66C82.9872 24.66 81.7672 24.31 80.6672 23.61C79.5872 22.91 78.7272 21.91 78.0872 20.61C77.4672 19.29 77.1572 17.76 77.1572 16.02ZM89.2772 16.02C89.2772 14.94 88.9772 14.09 88.3772 13.47C87.7972 12.85 87.0772 12.54 86.2172 12.54C85.3372 12.54 84.6072 12.85 84.0272 13.47C83.4472 14.07 83.1572 14.92 83.1572 16.02C83.1572 17.1 83.4472 17.96 84.0272 18.6C84.6072 19.22 85.3372 19.53 86.2172 19.53C87.0772 19.53 87.7972 19.22 88.3772 18.6C88.9772 17.98 89.2772 17.12 89.2772 16.02Z" fill="#0F0928"/>
<path d="M101.357 24.6901C100.317 24.6901 99.4772 24.4101 98.8372 23.8501C98.2172 23.2701 97.9072 22.5401 97.9072 21.6601C97.9072 20.7801 98.2172 20.0501 98.8372 19.4701C99.4772 18.8901 100.317 18.6001 101.357 18.6001C102.377 18.6001 103.197 18.8901 103.817 19.4701C104.457 20.0501 104.777 20.7801 104.777 21.6601C104.777 22.5201 104.457 23.2401 103.817 23.8201C103.197 24.4001 102.377 24.6901 101.357 24.6901Z" fill="#00E5E8"/>
<path d="M3.45 6.06C2.41 6.06 1.57 5.78 0.93 5.22C0.31 4.64 0 3.92 0 3.06C0 2.18 0.31 1.45 0.93 0.870001C1.57 0.29 2.41 0 3.45 0C4.47 0 5.29 0.29 5.91 0.870001C6.55 1.45 6.87 2.18 6.87 3.06C6.87 3.92 6.55 4.64 5.91 5.22C5.29 5.78 4.47 6.06 3.45 6.06Z" fill="#E13D71"/>
<path d="M53.6355 6.06C52.5955 6.06 51.7555 5.78 51.1155 5.22C50.4955 4.64 50.1855 3.92 50.1855 3.06C50.1855 2.18 50.4955 1.45 51.1155 0.870001C51.7555 0.29 52.5955 0 53.6355 0C54.6555 0 55.4755 0.29 56.0955 0.870001C56.7355 1.45 57.0555 2.18 57.0555 3.06C57.0555 3.92 56.7355 4.64 56.0955 5.22C55.4755 5.78 54.6555 6.06 53.6355 6.06Z" fill="#26E0A3"/>
</svg>
